<?xml version="1.0" encoding="UTF-8" standalone="no"?>
<!-- Created with Inkscape (http://www.inkscape.org/) -->

<svg
   xmlns:dc="http://purl.org/dc/elements/1.1/"
   xmlns:cc="http://creativecommons.org/ns#"
   xmlns:rdf="http://www.w3.org/1999/02/22-rdf-syntax-ns#"
   xmlns:svg="http://www.w3.org/2000/svg"
   xmlns="http://www.w3.org/2000/svg"
   xmlns:sodipodi="http://sodipodi.sourceforge.net/DTD/sodipodi-0.dtd"
   xmlns:inkscape="http://www.inkscape.org/namespaces/inkscape"
   width="30"
   height="30"
   viewBox="0 0 7.9374995 7.9374995"
   version="1.1"
   id="svg39498"
   inkscape:version="0.92.2 (5c3e80d, 2017-08-06)"
   sodipodi:docname="led_blue_off.svg">
  <defs
     id="defs39492" />
  <sodipodi:namedview
     id="base"
     pagecolor="#ffffff"
     bordercolor="#666666"
     borderopacity="1.0"
     inkscape:pageopacity="0.0"
     inkscape:pageshadow="2"
     inkscape:zoom="7.9195959"
     inkscape:cx="20.222127"
     inkscape:cy="7.6096238"
     inkscape:document-units="mm"
     inkscape:current-layer="layer1"
     showgrid="false"
     units="px"
     inkscape:window-width="1366"
     inkscape:window-height="705"
     inkscape:window-x="-8"
     inkscape:window-y="-8"
     inkscape:window-maximized="1" />
  <metadata
     id="metadata39495">
    <rdf:RDF>
      <cc:Work
         rdf:about="">
        <dc:format>image/svg+xml</dc:format>
        <dc:type
           rdf:resource="http://purl.org/dc/dcmitype/StillImage" />
        <dc:title></dc:title>
      </cc:Work>
    </rdf:RDF>
  </metadata>
  <g
     inkscape:label="Capa 1"
     inkscape:groupmode="layer"
     id="layer1"
     transform="translate(0,-289.0625)">
    <g
       transform="matrix(0.26458333,0,0,0.26458333,-16.409861,156.42208)"
       id="g30806">
      <rect
         style="opacity:1;fill:#ffffff;fill-opacity:0.0110497;stroke-width:1.07256699"
         id="rect30713"
         width="30"
         height="30"
         x="62.021523"
         y="501.31812" />
      <g
         transform="translate(-128.05604,126.22546)"
         id="g30671">
        <g
           id="g30667"
           transform="matrix(1,0,0,-1,71.921955,909.19175)">
          <path
             inkscape:connector-curvature="0"
             id="path30653"
             d="m 131.74012,513.93481 h 2.83029 v 10.32857 h -2.83029 z"
             style="fill:#cfd1d0;fill-opacity:0.8;fill-rule:nonzero;stroke:none;stroke-width:0.8075"
             gorn="0.0.0.0.4.0.0.1313.0.0.0.0.0" />
          <path
             inkscape:connector-curvature="0"
             id="path30655"
             d="m 131.351,514.79588 c 0,-0.152 0.123,-0.275 0.27462,-0.275 h 3.05963 c 0.15162,0 0.27537,0.123 0.27537,0.275 v 8.6045 c 0,0.15175 -0.12375,0.27537 -0.27537,0.27537 h -3.05963 c -0.15162,0 -0.27462,-0.12362 -0.27462,-0.27537 z"
             style="fill:#e5e6e7;fill-opacity:1;fill-rule:nonzero;stroke:none"
             gorn="0.0.0.0.4.0.0.1314" />
          <path
             inkscape:connector-curvature="0"
             id="path30657"
             d="m 131.62562,514.61726 c -0.0981,0 -0.17825,0.0801 -0.17825,0.17862 v 8.60488 c 0,0.0981 0.0801,0.17824 0.17825,0.17824 h 3.06 c 0.0985,0 0.17825,-0.0801 0.17825,-0.17824 v -8.60488 c 0,-0.0985 -0.0797,-0.17862 -0.17825,-0.17862 z m 3.06,9.15412 h -3.06 c -0.20412,0 -0.37025,-0.1665 -0.37025,-0.37062 v -8.60488 c 0,-0.20512 0.16613,-0.37137 0.37025,-0.37137 h 3.06 c 0.20413,0 0.37138,0.16625 0.37138,0.37137 v 8.60488 c 0,0.20412 -0.16725,0.37062 -0.37138,0.37062"
             style="fill:#6d6f71;fill-opacity:1;fill-rule:nonzero;stroke:none"
             gorn="0.0.0.0.4.0.0.1315" />
          <path
             inkscape:connector-curvature="0"
             id="path30659"
             d="m 132.37887,522.93063 c 0,-0.4305 0.34488,-0.78025 0.77713,-0.78025 0.43337,0 0.77912,0.34975 0.77912,0.78025 h 1.75788 v -7.6635 h -1.75788 c 0,0.42663 -0.34575,0.77812 -0.77912,0.77812 -0.43225,0 -0.77713,-0.35149 -0.77713,-0.77812 h -1.761 v 7.6635 z"
             style="fill:#003eff;fill-opacity:1;fill-rule:nonzero;stroke:none"
             gorn="0.0.0.0.4.0.0.1316" />
          <path
             inkscape:connector-curvature="0"
             id="path30661"
             d="m 134.02662,522.83425 h 1.56963 v -7.47037 h -1.56963 c -0.0486,0.43688 -0.421,0.77775 -0.87062,0.77775 -0.44963,0 -0.82025,-0.34087 -0.86813,-0.77775 H 130.715 v 7.47037 h 1.57287 c 0.0479,-0.43874 0.4185,-0.78024 0.86813,-0.78024 0.44962,0 0.822,0.3415 0.87062,0.78024 z m 1.66675,0.19276 h -1.75787 c -0.0528,0 -0.0964,-0.0436 -0.0964,-0.0968 0,-0.37699 -0.30575,-0.68312 -0.68312,-0.68312 -0.37525,0 -0.68075,0.30613 -0.68075,0.68312 0,0.0531 -0.0435,0.0968 -0.096,0.0968 h -1.76138 c -0.0524,0 -0.096,-0.0436 -0.096,-0.0968 v -7.66312 c 0,-0.0525 0.0436,-0.0964 0.096,-0.0964 h 1.76138 c 0.0525,0 0.096,0.0439 0.096,0.0964 0,0.37625 0.3055,0.68138 0.68075,0.68138 0.37737,0 0.68312,-0.30513 0.68312,-0.68138 0,-0.0525 0.0436,-0.0964 0.0964,-0.0964 h 1.75787 c 0.0531,0 0.096,0.0439 0.096,0.0964 v 7.66312 c 0,0.0531 -0.0429,0.0968 -0.096,0.0968"
             style="fill:#939598;fill-opacity:1;fill-rule:nonzero;stroke:none"
             gorn="0.0.0.0.4.0.0.1317" />
          <path
             inkscape:connector-curvature="0"
             id="path30663"
             d="m 135.693,517.19788 h -5.07513 v 3.80025 h 5.07513 z"
             style="fill:#ffffff;fill-opacity:1;fill-rule:nonzero;stroke:none"
             gorn="0.0.0.0.4.0.0.1318" />
          <path
             inkscape:connector-curvature="0"
             id="path30665"
             d="m 133.15575,515.26701 h 2.53708 v 7.66325 h -2.53708 z"
             style="fill:#ffffff;fill-opacity:0.5;fill-rule:nonzero;stroke:none;stroke-width:0.8075"
             gorn="0.0.0.0.4.0.0.1320.0.0.0.0.0" />
        </g>
        <path
           gorn="0.0.0.0.4.0.0.1511"
           style="fill:#939598;fill-opacity:1;fill-rule:nonzero;stroke:none"
           d="m 202.63658,391.8966 h 4.88237 v -3.60674 h -4.88237 z m 4.97837,0.19238 h -5.07437 c -0.0531,0 -0.0968,-0.0429 -0.0968,-0.096 v -3.80025 c 0,-0.0535 0.0436,-0.0964 0.0968,-0.0964 h 5.07437 c 0.0535,0 0.0964,0.0429 0.0964,0.0964 v 3.80025 c 0,0.0531 -0.0429,0.096 -0.0964,0.096"
           id="path30669"
           inkscape:connector-curvature="0" />
      </g>
    </g>
  </g>
</svg>
