<?xml version="1.0" encoding="UTF-8" standalone="no"?>
<!-- Created with Inkscape (http://www.inkscape.org/) -->

<svg
   xmlns:dc="http://purl.org/dc/elements/1.1/"
   xmlns:cc="http://creativecommons.org/ns#"
   xmlns:rdf="http://www.w3.org/1999/02/22-rdf-syntax-ns#"
   xmlns:svg="http://www.w3.org/2000/svg"
   xmlns="http://www.w3.org/2000/svg"
   xmlns:sodipodi="http://sodipodi.sourceforge.net/DTD/sodipodi-0.dtd"
   xmlns:inkscape="http://www.inkscape.org/namespaces/inkscape"
   width="22"
   height="36"
   viewBox="0 0 5.820833 9.5249994"
   version="1.1"
   id="svg39498"
   inkscape:version="0.92.2 (5c3e80d, 2017-08-06)"
   sodipodi:docname="sw_push.svg">
  <defs
     id="defs39492" />
  <sodipodi:namedview
     id="base"
     pagecolor="#ffffff"
     bordercolor="#666666"
     borderopacity="1.0"
     inkscape:pageopacity="0.0"
     inkscape:pageshadow="2"
     inkscape:zoom="7.9195959"
     inkscape:cx="-5.9766728"
     inkscape:cy="10.178243"
     inkscape:document-units="mm"
     inkscape:current-layer="layer1"
     showgrid="false"
     units="px"
     inkscape:window-width="1366"
     inkscape:window-height="705"
     inkscape:window-x="-8"
     inkscape:window-y="-8"
     inkscape:window-maximized="1" />
  <metadata
     id="metadata39495">
    <rdf:RDF>
      <cc:Work
         rdf:about="">
        <dc:format>image/svg+xml</dc:format>
        <dc:type
           rdf:resource="http://purl.org/dc/dcmitype/StillImage" />
        <dc:title></dc:title>
      </cc:Work>
    </rdf:RDF>
  </metadata>
  <g
     inkscape:label="Capa 1"
     inkscape:groupmode="layer"
     id="layer1"
     transform="translate(0,-287.475)">
    <g
       transform="matrix(0.26458333,0,0,0.26458333,149.46523,127.0509)"
       id="g51873">
      <rect
         style="opacity:1;fill:#ffffff;fill-opacity:0.03314915;stroke-width:0.4195548"
         id="rect51819"
         width="22"
         height="36"
         x="-564.90796"
         y="606.32733" />
      <g
         transform="translate(-113.73942,-2.5994785)"
         id="g51817">
        <g
           id="g51589"
           transform="translate(-25.614099)">
          <path
             gorn="0.0.0.0.4.0.0.1268"
             style="fill:#cfd1d0;fill-opacity:1;fill-rule:nonzero;stroke:none"
             d="m -419.95562,637.43281 v 4.41637 c 0,1.24837 -1.079,2.26987 -2.39813,2.26987 -1.31887,0 -2.3985,-1.0215 -2.3985,-2.26987 v -4.41637 z"
             id="path51545"
             inkscape:connector-curvature="0" />
          <path
             gorn="0.0.0.0.4.0.0.1270"
             style="fill:#b9bbbc;fill-opacity:1;fill-rule:nonzero;stroke:none"
             d="m -419.95563,637.43281 h -4.79662 v 2.67449 h 4.79662 z"
             id="path51547"
             inkscape:connector-curvature="0" />
          <path
             inkscape:connector-curvature="0"
             id="path51549"
             d="m -404.35662,637.43281 v 4.41637 c 0,1.24837 -1.079,2.26987 -2.39813,2.26987 -1.31887,0 -2.3985,-1.0215 -2.3985,-2.26987 v -4.41637 z"
             style="fill:#cfd1d0;fill-opacity:1;fill-rule:nonzero;stroke:none"
             gorn="0.0.0.0.4.0.0.1268" />
          <path
             inkscape:connector-curvature="0"
             id="path51551"
             d="m -404.35662,637.43281 h -4.79662 v 2.67449 h 4.79662 z"
             style="fill:#b9bbbc;fill-opacity:1;fill-rule:nonzero;stroke:none"
             gorn="0.0.0.0.4.0.0.1270" />
          <path
             inkscape:connector-curvature="0"
             id="path51553"
             d="m -419.95562,616.42081 v -4.41637 c 0,-1.24837 -1.079,-2.26987 -2.39813,-2.26987 -1.31887,0 -2.3985,1.0215 -2.3985,2.26987 v 4.41637 z"
             style="fill:#cfd1d0;fill-opacity:1;fill-rule:nonzero;stroke:none"
             gorn="0.0.0.0.4.0.0.1268" />
          <path
             inkscape:connector-curvature="0"
             id="path51555"
             d="m -419.95563,616.42081 h -4.79662 v -2.67449 h 4.79662 z"
             style="fill:#b9bbbc;fill-opacity:1;fill-rule:nonzero;stroke:none"
             gorn="0.0.0.0.4.0.0.1270" />
          <path
             inkscape:connector-curvature="0"
             id="path51557"
             d="m -424.75225,616.31625 v 21.22125 h 20.39563 v -21.22125 c -7.29888,0 -13.09675,0 -20.39563,0"
             style="fill:#cccccc;fill-opacity:1;fill-rule:nonzero;stroke:none"
             gorn="0.0.0.0.4.0.0.1280" />
          <path
             inkscape:connector-curvature="0"
             id="path51559"
             d="m -414.55438,621.60307 c 2.94025,0 5.32375,2.38388 5.32375,5.32375 0,2.94025 -2.3835,5.32387 -5.32375,5.32387 -2.94025,0 -5.32387,-2.38362 -5.32387,-5.32387 0,-2.93987 2.38362,-5.32375 5.32387,-5.32375"
             style="fill:#1a1a1a;fill-opacity:1;fill-rule:nonzero;stroke:none"
             gorn="0.0.0.0.4.0.0.1285" />
          <path
             inkscape:connector-curvature="0"
             id="path51561"
             d="m -419.62825,626.92681 c 0,2.79788 2.27625,5.07439 5.074,5.07439 2.79811,0 5.07361,-2.27651 5.07361,-5.07439 0,-2.79774 -2.2755,-5.07362 -5.07361,-5.07362 -2.79775,0 -5.074,2.27588 -5.074,5.07362 z m 10.64836,0 c 0,3.0735 -2.50087,5.57439 -5.57436,5.57439 -3.07388,0 -5.57475,-2.50089 -5.57475,-5.57439 0,-3.07312 2.50087,-5.57425 5.57475,-5.57425 3.07349,0 5.57436,2.50113 5.57436,5.57425"
             style="fill:#999999;fill-opacity:1;fill-rule:nonzero;stroke:none"
             gorn="0.0.0.0.4.0.0.1286" />
          <path
             inkscape:connector-curvature="0"
             id="path51563"
             d="m -404.48212,637.41244 v -20.97137 c -7.23438,0 -12.91038,0 -20.14475,0 v 20.97137 z m 0.25025,-21.22125 v 21.47138 H -424.877 v -21.47138 c 7.36338,0 13.28175,0 20.64513,0"
             style="fill:#58595b;fill-opacity:1;fill-rule:nonzero;stroke:none"
             gorn="0.0.0.0.4.0.0.1281" />
          <path
             inkscape:connector-curvature="0"
             id="path51565"
             d="m -421.80462,617.72257 c 0.962,0 1.74162,0.77987 1.74162,1.74162 0,0.962 -0.77962,1.74188 -1.74162,1.74188 -0.962,0 -1.7415,-0.77988 -1.7415,-1.74188 0,-0.96175 0.7795,-1.74162 1.7415,-1.74162"
             style="fill:#414142;fill-opacity:1;fill-rule:nonzero;stroke:none"
             gorn="0.0.0.0.4.0.0.1291" />
          <path
             inkscape:connector-curvature="0"
             id="path51567"
             d="m -421.80462,632.67606 c 0.962,0 1.74162,0.77988 1.74162,1.74151 0,0.962 -0.77962,1.742 -1.74162,1.742 -0.962,0 -1.7415,-0.78 -1.7415,-1.742 0,-0.96163 0.7795,-1.74151 1.7415,-1.74151"
             style="fill:#414142;fill-opacity:1;fill-rule:nonzero;stroke:none"
             gorn="0.0.0.0.4.0.0.1287" />
          <path
             inkscape:connector-curvature="0"
             id="path51569"
             d="m -407.0315,632.67606 c 0.962,0 1.74163,0.77988 1.74163,1.74151 0,0.962 -0.77963,1.742 -1.74163,1.742 -0.962,0 -1.7415,-0.78 -1.7415,-1.742 0,-0.96163 0.7795,-1.74151 1.7415,-1.74151"
             style="fill:#414142;fill-opacity:1;fill-rule:nonzero;stroke:none"
             gorn="0.0.0.0.4.0.0.1289" />
          <path
             inkscape:connector-curvature="0"
             id="path51571"
             d="m -407.0315,617.72257 c 0.962,0 1.74163,0.77987 1.74163,1.74162 0,0.962 -0.77963,1.74188 -1.74163,1.74188 -0.962,0 -1.7415,-0.77988 -1.7415,-1.74188 0,-0.96175 0.7795,-1.74162 1.7415,-1.74162"
             style="fill:#414142;fill-opacity:1;fill-rule:nonzero;stroke:none"
             gorn="0.0.0.0.4.0.0.1293" />
          <path
             inkscape:connector-curvature="0"
             id="path51573"
             d="m -423.927,630.40169 h -0.82525 v -7.19862 h 0.82525 z"
             style="fill:#231f20;fill-opacity:1;fill-rule:nonzero;stroke:none"
             gorn="0.0.0.0.4.0.0.1282" />
          <path
             gorn="0.0.0.0.4.0.0.1268"
             style="fill:#cfd1d0;fill-opacity:1;fill-rule:nonzero;stroke:none"
             d="m -404.35662,616.42081 v -4.41637 c 0,-1.24837 -1.079,-2.26987 -2.39813,-2.26987 -1.31887,0 -2.3985,1.0215 -2.3985,2.26987 v 4.41637 z"
             id="path51575"
             inkscape:connector-curvature="0" />
          <path
             gorn="0.0.0.0.4.0.0.1270"
             style="fill:#b9bbbc;fill-opacity:1;fill-rule:nonzero;stroke:none"
             d="m -404.35662,616.42081 h -4.79662 v -2.67449 h 4.79662 z"
             id="path51577"
             inkscape:connector-curvature="0" />
          <path
             inkscape:connector-curvature="0"
             id="path51579"
             d="m -423.46462,619.46414 c 0,0.91562 0.74487,1.66012 1.66,1.66012 0.91525,0 1.65975,-0.7445 1.65975,-1.66012 0,-0.91513 -0.7445,-1.65963 -1.65975,-1.65963 -0.91513,0 -1.66,0.7445 -1.66,1.65963 z m 3.48375,0 c 0,1.00562 -0.81813,1.82375 -1.82375,1.82375 -1.0055,0 -1.82363,-0.81813 -1.82363,-1.82375 0,-1.00513 0.81813,-1.82338 1.82363,-1.82338 1.00562,0 1.82375,0.81825 1.82375,1.82338"
             style="fill:#231f20;fill-opacity:1;fill-rule:nonzero;stroke:none"
             gorn="0.0.0.0.4.0.0.1288" />
          <path
             inkscape:connector-curvature="0"
             id="path51581"
             d="m -423.46462,634.41763 c 0,0.91562 0.74487,1.66012 1.66,1.66012 0.91525,0 1.65975,-0.7445 1.65975,-1.66012 0,-0.91513 -0.7445,-1.65963 -1.65975,-1.65963 -0.91513,0 -1.66,0.7445 -1.66,1.65963 z m 3.48375,0 c 0,1.00562 -0.81813,1.82375 -1.82375,1.82375 -1.0055,0 -1.82363,-0.81813 -1.82363,-1.82375 0,-1.00513 0.81813,-1.82338 1.82363,-1.82338 1.00562,0 1.82375,0.81825 1.82375,1.82338"
             style="fill:#231f20;fill-opacity:1;fill-rule:nonzero;stroke:none"
             gorn="0.0.0.0.4.0.0.1288" />
          <path
             inkscape:connector-curvature="0"
             id="path51583"
             d="m -408.69149,619.46414 c 0,0.91562 0.74487,1.66012 1.66,1.66012 0.91525,0 1.65975,-0.7445 1.65975,-1.66012 0,-0.91513 -0.7445,-1.65963 -1.65975,-1.65963 -0.91513,0 -1.66,0.7445 -1.66,1.65963 z m 3.48375,0 c 0,1.00562 -0.81813,1.82375 -1.82375,1.82375 -1.0055,0 -1.82363,-0.81813 -1.82363,-1.82375 0,-1.00513 0.81813,-1.82338 1.82363,-1.82338 1.00562,0 1.82375,0.81825 1.82375,1.82338"
             style="fill:#231f20;fill-opacity:1;fill-rule:nonzero;stroke:none"
             gorn="0.0.0.0.4.0.0.1288" />
          <path
             inkscape:connector-curvature="0"
             id="path51585"
             d="m -408.69149,634.41763 c 0,0.91562 0.74487,1.66012 1.66,1.66012 0.91525,0 1.65975,-0.7445 1.65975,-1.66012 0,-0.91513 -0.7445,-1.65963 -1.65975,-1.65963 -0.91513,0 -1.66,0.7445 -1.66,1.65963 z m 3.48375,0 c 0,1.00562 -0.81813,1.82375 -1.82375,1.82375 -1.0055,0 -1.82363,-0.81813 -1.82363,-1.82375 0,-1.00513 0.81813,-1.82338 1.82363,-1.82338 1.00562,0 1.82375,0.81825 1.82375,1.82338"
             style="fill:#231f20;fill-opacity:1;fill-rule:nonzero;stroke:none"
             gorn="0.0.0.0.4.0.0.1288" />
          <path
             gorn="0.0.0.0.4.0.0.1282"
             style="fill:#231f20;fill-opacity:1;fill-rule:nonzero;stroke:none"
             d="m -404.35662,630.40169 h -0.82525 v -7.19862 h 0.82525 z"
             id="path51587"
             inkscape:connector-curvature="0" />
        </g>
      </g>
    </g>
  </g>
</svg>
